<svg version="1.0" xmlns="http://www.w3.org/2000/svg"
 width="1080.000000pt" height="1080.000000pt" viewBox="0 0 1080.000000 1080.000000"
 preserveAspectRatio="xMidYMid meet">

<g transform="translate(0.000000,1080.000000) scale(0.100000,-0.100000)"
fill="#000000" stroke="none">
<path d="M5562 6030 c-214 -56 -376 -225 -428 -445 -24 -106 -16 -286 18 -383
90 -253 306 -401 586 -402 76 0 203 20 256 40 l22 8 -15 127 c-14 120 -16 126
-35 120 -113 -37 -166 -46 -244 -42 -146 8 -249 77 -310 207 -23 48 -26 68
-27 165 0 101 2 115 29 172 37 82 112 152 191 182 86 32 211 31 294 -2 34 -14
61 -22 61 -18 0 3 7 60 15 125 8 66 13 121 10 124 -2 2 -35 13 -72 23 -91 26
-251 25 -351 -1z"/>
<path d="M8722 6030 c-214 -56 -376 -225 -428 -445 -24 -106 -16 -286 18 -383
90 -253 306 -401 586 -402 76 0 203 20 256 40 l22 8 -15 127 c-14 120 -16 126
-35 120 -113 -37 -166 -46 -244 -42 -146 8 -249 77 -310 207 -23 48 -26 68
-27 165 0 101 2 115 29 172 37 82 112 152 191 182 86 32 211 31 294 -2 34 -14
61 -22 61 -18 0 3 7 60 15 125 8 66 13 121 10 124 -2 2 -35 13 -72 23 -91 26
-251 25 -351 -1z"/>
<path d="M590 5420 l0 -620 120 0 120 0 2 248 3 247 158 3 157 3 0 119 0 119
-157 3 -158 3 -3 123 -3 122 186 0 185 0 0 125 0 125 -305 0 -305 0 0 -620z"/>
<path d="M1480 5420 l0 -620 320 0 320 0 0 125 0 125 -195 0 -195 0 0 495 0
495 -125 0 -125 0 0 -620z"/>
<path d="M3400 6037 c0 -2 114 -287 253 -633 212 -527 256 -629 273 -632 19
-3 34 28 129 265 60 147 111 272 115 276 6 6 160 -351 219 -506 7 -19 18 -27
34 -27 22 0 41 43 272 618 136 339 250 623 252 630 4 9 -27 12 -134 12 l-140
0 -123 -315 c-68 -173 -125 -313 -127 -312 -1 2 -56 140 -122 307 -65 168
-122 305 -126 305 -3 0 -60 -137 -125 -304 -65 -167 -120 -305 -122 -306 -2
-2 -59 138 -127 311 l-124 314 -139 0 c-76 0 -138 -2 -138 -3z"/>
<path d="M6280 5420 l0 -620 320 0 320 0 0 125 0 125 -195 0 -195 0 0 495 0
495 -125 0 -125 0 0 -620z"/>
<path d="M9440 5420 l0 -620 125 0 125 0 2 241 3 240 163 -240 163 -241 149 0
c83 0 150 2 150 6 0 4 -394 574 -421 610 -5 6 66 124 184 305 106 162 197 300
201 307 6 9 -24 12 -136 12 l-144 0 -155 -245 -154 -245 -3 245 -2 245 -125 0
-125 0 0 -620z"/>
<path d="M2695 6020 c-236 -26 -446 -203 -517 -435 -29 -92 -30 -252 -4 -339
34 -115 77 -187 161 -272 65 -66 96 -89 165 -122 109 -52 183 -66 313 -59 125
6 201 31 303 99 91 61 152 130 204 229 127 243 83 526 -110 719 -140 140 -317
202 -515 180z m495 -244 c0 -6 -95 -106 -210 -221 l-210 -210 -107 107 -107
107 24 26 c13 14 28 25 34 25 6 0 43 -32 83 -72 l73 -72 185 183 185 184 25
-23 c14 -13 25 -28 25 -34z"/>
<path d="M7499 6020 c-132 -16 -266 -86 -366 -193 -111 -119 -163 -254 -163
-425 0 -174 59 -313 184 -437 119 -118 260 -175 431 -175 175 0 313 57 436
179 126 127 179 257 179 442 0 180 -53 305 -184 434 -143 141 -313 199 -517
175z m300 -456 c-181 -181 -215 -211 -228 -201 -9 7 -58 55 -109 108 l-92 96
23 21 c13 12 27 22 32 22 5 0 43 -34 85 -75 l75 -75 185 185 184 185 28 -27
29 -27 -212 -212z"/>
</g>
</svg>
