<svg version="1.0" xmlns="http://www.w3.org/2000/svg"
 width="975.000000pt" height="129.000000pt" viewBox="0 0 975.000000 129.000000"
 preserveAspectRatio="xMidYMid meet">

<g transform="translate(0.000000,129.000000) scale(0.100000,-0.100000)"
fill="#000000" stroke="none">
<path d="M4982 1260 c-214 -56 -376 -225 -428 -445 -24 -106 -16 -286 18 -383
90 -253 306 -401 586 -402 76 0 203 20 256 40 l22 8 -15 127 c-14 120 -16 126
-35 120 -113 -37 -166 -46 -244 -42 -146 8 -249 77 -310 207 -23 48 -26 68
-27 165 0 101 2 115 29 172 37 82 112 152 191 182 86 32 211 31 294 -2 34 -14
61 -22 61 -18 0 3 7 60 15 125 8 66 13 121 10 124 -2 2 -35 13 -72 23 -91 26
-251 25 -351 -1z"/>
<path d="M8142 1260 c-214 -56 -376 -225 -428 -445 -24 -106 -16 -286 18 -383
90 -253 306 -401 586 -402 76 0 203 20 256 40 l22 8 -15 127 c-14 120 -16 126
-35 120 -113 -37 -166 -46 -244 -42 -146 8 -249 77 -310 207 -23 48 -26 68
-27 165 0 101 2 115 29 172 37 82 112 152 191 182 86 32 211 31 294 -2 34 -14
61 -22 61 -18 0 3 7 60 15 125 8 66 13 121 10 124 -2 2 -35 13 -72 23 -91 26
-251 25 -351 -1z"/>
<path d="M10 650 l0 -620 120 0 120 0 2 247 3 248 158 3 157 3 0 119 0 119
-157 3 -158 3 -3 123 -3 122 186 0 185 0 0 125 0 125 -305 0 -305 0 0 -620z"/>
<path d="M900 650 l0 -620 320 0 320 0 0 125 0 125 -195 0 -195 0 0 495 0 495
-125 0 -125 0 0 -620z"/>
<path d="M2820 1267 c0 -2 114 -287 253 -633 212 -527 256 -629 273 -632 19
-3 34 28 129 265 60 147 111 272 115 276 6 6 160 -351 219 -506 7 -19 18 -27
34 -27 22 0 41 43 272 618 136 339 250 623 252 630 4 9 -27 12 -134 12 l-140
0 -123 -315 c-68 -173 -125 -313 -127 -312 -1 2 -56 140 -122 307 -65 168
-122 305 -126 305 -3 0 -60 -137 -125 -304 -65 -167 -120 -305 -122 -306 -2
-2 -59 138 -127 311 l-124 314 -139 0 c-76 0 -138 -2 -138 -3z"/>
<path d="M5700 650 l0 -620 320 0 320 0 0 125 0 125 -195 0 -195 0 0 495 0
495 -125 0 -125 0 0 -620z"/>
<path d="M8860 650 l0 -620 125 0 125 0 2 241 3 240 163 -240 163 -241 149 0
c83 0 150 2 150 6 0 4 -394 574 -421 610 -5 6 66 124 184 305 106 162 197 300
201 307 6 9 -24 12 -136 12 l-144 0 -155 -245 -154 -245 -3 245 -2 245 -125 0
-125 0 0 -620z"/>
<path d="M2100 1249 c-136 -15 -255 -74 -357 -175 -128 -128 -192 -299 -180
-483 18 -263 207 -489 463 -555 79 -20 228 -21 307 0 461 119 622 699 287
1034 -140 139 -323 202 -520 179z m479 -220 l23 -31 -211 -212 -211 -211 -107
107 -108 108 28 27 27 28 78 -78 77 -77 185 185 c102 102 187 185 191 185 3 0
16 -14 28 -31z"/>
<path d="M6925 1250 c-150 -18 -252 -67 -361 -175 -66 -65 -89 -96 -122 -165
-49 -104 -62 -163 -62 -284 0 -168 57 -303 180 -426 122 -123 261 -180 435
-180 177 0 314 57 440 184 84 84 126 156 159 265 22 74 22 258 0 332 -42 141
-146 282 -266 359 -107 70 -269 106 -403 90z m292 -449 c-111 -113 -208 -210
-216 -215 -10 -6 -41 19 -116 98 l-101 106 28 27 28 27 78 -77 77 -77 185 185
184 185 28 -27 28 -27 -203 -205z"/>
</g>
</svg>
